<?xml version="1.0" encoding="utf-8"?>
<!-- Generator: Adobe Illustrator 15.1.0, SVG Export Plug-In . SVG Version: 6.00 Build 0)  -->
<!DOCTYPE svg PUBLIC "-//W3C//DTD SVG 1.1//EN" "http://www.w3.org/Graphics/SVG/1.1/DTD/svg11.dtd">
<svg version="1.1" id="Layer_1" xmlns="http://www.w3.org/2000/svg" xmlns:xlink="http://www.w3.org/1999/xlink" x="0px" y="0px"
	 width="258px" height="258px" viewBox="0 0 128 128" enable-background="new 0 0 128 128" xml:space="preserve">
<rect x="20" y="12" display="none" fill="#4C4C4D" width="84.254" height="100"/>
<rect x="18.744" y="18.746" transform="matrix(-0.7071 0.7071 -0.7071 -0.7071 154.5076 64.0009)" fill="#4C4C4D" width="90.509" height="90.509"/>
<g>
	
		<rect x="46.687" y="16.06" transform="matrix(0.7071 0.7071 -0.7071 0.7071 52.3426 -26.3674)" fill="#569DD5" width="22.626" height="67.881"/>
	
		<rect x="57.687" y="43.058" transform="matrix(-0.7071 -0.7071 0.7071 -0.7071 63.3426 180.235)" fill="#ED3694" width="22.626" height="67.881"/>
	<g>
		<g>
			<polygon fill="#FEFEFF" points="54,82 50,78 50,70 54,66 62,66 62,70 58,70 56,70 54,72 54,74 54,76 56,78 58,78 58,74 62,74 
				62,82 			"/>
			<polygon fill="#FEFEFF" points="66,78 70,82 78,82 78,78 72,78 70,76 70,72 72,70 78,70 78,66 70,66 66,70 			"/>
			<polygon fill="#FEFEFF" points="82,82 82,66 88,72 94,66 94,82 90,82 90,76 88,78 86,76 86,82 			"/>
			<polygon fill="#FEFEFF" points="37.5,74 34,70.5 34,66 38,66 38,69.5 40,71.5 42,69.5 42,66 46,66 46,70.5 42.458,74 46,77.5 
				46,82 42,82 42,78.5 40,76.5 38,78.5 38,82 34,82 34,77.5 			"/>
		</g>
	</g>
</g>
</svg>
